<svg xmlns="http://www.w3.org/2000/svg" viewBox="0 0 720 432" role="img" aria-labelledby="title desc">
  <title id="title">Kerala contemporary house study</title><desc id="desc">A rain-ready home with sloped roof planes, a shaded verandah and a modern masonry base.</desc>
  <defs><pattern id="grid" width="36" height="36" patternUnits="userSpaceOnUse"><path d="M36 0H0V36" fill="none" stroke="#342a23"/></pattern><linearGradient id="plaster" x1="0" y1="0" x2="0" y2="1"><stop stop-color="#e0cbb2"/><stop offset="1" stop-color="#96765a"/></linearGradient></defs>
  <rect width="720" height="432" fill="#090908"/><rect width="720" height="432" fill="url(#grid)"/>
  <path d="m117 354 253-119 250 103-252 82Z" fill="#17120f" stroke="#5d4636"/>
  <path d="m164 225 192-84 190 73v144l-190 56-192-71Z" fill="url(#plaster)"/>
  <path d="m117 227 239-137 241 118-56 35-185-87-190 101Z" fill="#38241a" stroke="#ff6a1f" stroke-width="4"/>
  <path d="m356 90 44-22 239 118-42 22Z" fill="#6f3e25"/><path d="m164 264 192-108 185 87-185 105Z" fill="none" stroke="#c97940" stroke-width="3"/>
  <path d="m183 276 173 72v66l-173-64Z" fill="#ad8d6d"/><path d="m356 348 167-93v82l-167 77Z" fill="#66503e"/>
  <path d="m224 292 61 25v69l-61-23Z" fill="#251b15"/><path d="m392 328 70-39v74l-70 34Z" fill="#1d2925" stroke="#7ca47d"/>
  <path d="m143 268 213 80 204-112" fill="none" stroke="#ff9a58" stroke-width="5"/>
  <path d="M86 376h548M110 397h498" stroke="#8e5a31" stroke-width="2" opacity=".65"/>
  <path d="M612 58v74m-37-37h74" stroke="#ff6a1f"/><circle cx="612" cy="95" r="25" fill="none" stroke="#ff6a1f"/>
</svg>
